<svg width="20" height="20" viewBox="0 0 20 20" fill="none" xmlns="http://www.w3.org/2000/svg">
<path d="M18.8035 16.9464C19.0501 17.193 19.1886 17.5274 19.1886 17.8761C19.1886 18.2248 19.0501 18.5592 18.8035 18.8058C18.557 19.0524 18.2226 19.1909 17.8739 19.1909C17.5252 19.1909 17.1907 19.0524 16.9442 18.8058L9.99995 11.8594L3.05355 18.8036C2.80698 19.0502 2.47256 19.1887 2.12386 19.1887C1.77516 19.1887 1.44074 19.0502 1.19417 18.8036C0.947603 18.557 0.809082 18.2226 0.809082 17.8739C0.809082 17.5252 0.947603 17.1908 1.19417 16.9442L8.14058 10L1.19636 3.0536C0.94979 2.80703 0.81127 2.47262 0.81127 2.12391C0.81127 1.77521 0.94979 1.4408 1.19636 1.19423C1.44293 0.947659 1.77735 0.809138 2.12605 0.809138C2.47475 0.809138 2.80917 0.947659 3.05573 1.19423L9.99995 8.14063L16.9464 1.19313C17.1929 0.946565 17.5273 0.808044 17.876 0.808044C18.2247 0.808044 18.5592 0.946565 18.8057 1.19313C19.0523 1.4397 19.1908 1.77412 19.1908 2.12282C19.1908 2.47152 19.0523 2.80594 18.8057 3.05251L11.8593 10L18.8035 16.9464Z" fill="white"/>
</svg>
