<svg width="39" height="40" viewBox="0 0 39 40" fill="none" xmlns="http://www.w3.org/2000/svg">
<path d="M17.0625 11.375C17.0625 11.5905 16.9769 11.7972 16.8245 11.9495C16.6722 12.1019 16.4655 12.1875 16.25 12.1875H9.75C9.53451 12.1875 9.32785 12.1019 9.17548 11.9495C9.0231 11.7972 8.9375 11.5905 8.9375 11.375C8.9375 11.1595 9.0231 10.9529 9.17548 10.8005C9.32785 10.6481 9.53451 10.5625 9.75 10.5625H16.25C16.4655 10.5625 16.6722 10.6481 16.8245 10.8005C16.9769 10.9529 17.0625 11.1595 17.0625 11.375ZM16.25 13.8125H9.75C9.53451 13.8125 9.32785 13.8981 9.17548 14.0505C9.0231 14.2028 8.9375 14.4095 8.9375 14.625C8.9375 14.8405 9.0231 15.0472 9.17548 15.1995C9.32785 15.3519 9.53451 15.4375 9.75 15.4375H16.25C16.4655 15.4375 16.6722 15.3519 16.8245 15.1995C16.9769 15.0472 17.0625 14.8405 17.0625 14.625C17.0625 14.4095 16.9769 14.2028 16.8245 14.0505C16.6722 13.8981 16.4655 13.8125 16.25 13.8125ZM23.5625 13C23.5629 14.8236 23.0912 16.6162 22.1932 18.2034C21.2952 19.7906 20.0017 21.1182 18.4384 22.0572C16.8751 22.9961 15.0953 23.5143 13.2723 23.5613C11.4493 23.6083 9.64525 23.1826 8.03562 22.3255L4.57742 23.4782C4.2911 23.5737 3.98385 23.5875 3.6901 23.5182C3.39635 23.4489 3.12771 23.2991 2.91429 23.0857C2.70087 22.8723 2.5511 22.6037 2.48178 22.3099C2.41246 22.0162 2.42631 21.7089 2.5218 21.4226L3.67453 17.9644C2.92109 16.5478 2.50026 14.9782 2.444 13.3747C2.38773 11.7713 2.69751 10.176 3.3498 8.71014C4.0021 7.24425 4.97978 5.94623 6.20863 4.9146C7.43748 3.88298 8.88521 3.14486 10.4419 2.75628C11.9986 2.3677 13.6234 2.33887 15.1929 2.67198C16.7624 3.00508 18.2354 3.69137 19.5001 4.67875C20.7648 5.66613 21.7879 6.92865 22.4918 8.37047C23.1957 9.8123 23.5618 11.3955 23.5625 13ZM21.9375 13C21.9371 11.629 21.6213 10.2765 21.0146 9.04713C20.4079 7.81773 19.5264 6.7444 18.4385 5.91016C17.3505 5.07592 16.0853 4.50315 14.7406 4.23616C13.3958 3.96917 12.0077 4.01511 10.6836 4.37044C9.35947 4.72576 8.13484 5.38094 7.10445 6.28529C6.07406 7.18964 5.26553 8.31891 4.74141 9.58574C4.21729 10.8526 3.99163 12.223 4.08189 13.591C4.17216 14.959 4.57592 16.2879 5.26195 17.4748C5.31953 17.5745 5.35528 17.6852 5.36684 17.7998C5.37839 17.9143 5.36549 18.0299 5.32898 18.1391L4.0625 21.9375L7.86094 20.671C7.94367 20.6428 8.03048 20.6284 8.11789 20.6284C8.26059 20.6286 8.40071 20.6664 8.52414 20.738C9.88284 21.5242 11.4246 21.9386 12.9944 21.9396C14.5641 21.9405 16.1064 21.5281 17.4661 20.7437C18.8258 19.9593 19.9549 18.8306 20.7398 17.4712C21.5248 16.1119 21.9379 14.5697 21.9375 13Z" fill="white"/>
<path d="M24.875 25.75C24.875 25.9158 24.9408 26.0747 25.0581 26.1919C25.1753 26.3091 25.3342 26.375 25.5 26.375H30.5C30.6658 26.375 30.8247 26.3091 30.9419 26.1919C31.0592 26.0747 31.125 25.9158 31.125 25.75C31.125 25.5842 31.0592 25.4253 30.9419 25.3081C30.8247 25.1908 30.6658 25.125 30.5 25.125H25.5C25.3342 25.125 25.1753 25.1908 25.0581 25.3081C24.9408 25.4253 24.875 25.5842 24.875 25.75ZM25.5 27.625H30.5C30.6658 27.625 30.8247 27.6908 30.9419 27.8081C31.0592 27.9253 31.125 28.0842 31.125 28.25C31.125 28.4158 31.0592 28.5747 30.9419 28.6919C30.8247 28.8091 30.6658 28.875 30.5 28.875H25.5C25.3342 28.875 25.1753 28.8091 25.0581 28.6919C24.9408 28.5747 24.875 28.4158 24.875 28.25C24.875 28.0842 24.9408 27.9253 25.0581 27.8081C25.1753 27.6908 25.3342 27.625 25.5 27.625ZM19.875 27C19.8747 28.4028 20.2376 29.7817 20.9283 31.0026C21.619 32.2235 22.6141 33.2448 23.8166 33.967C25.0192 34.6893 26.3882 35.0879 27.7905 35.1241C29.1928 35.1602 30.5806 34.8327 31.8188 34.1734L34.4789 35.0601C34.6992 35.1336 34.9355 35.1443 35.1615 35.0909C35.3874 35.0376 35.5941 34.9224 35.7582 34.7582C35.9224 34.5941 36.0376 34.3874 36.0909 34.1615C36.1443 33.9355 36.1336 33.6991 36.0602 33.4789L35.1734 30.8187C35.753 29.7291 36.0767 28.5217 36.12 27.2883C36.1633 26.0548 35.925 24.8277 35.4232 23.7001C34.9215 22.5725 34.1694 21.574 33.2241 20.7805C32.2789 19.9869 31.1652 19.4191 29.9678 19.1202C28.7703 18.8213 27.5205 18.7991 26.3132 19.0554C25.1058 19.3116 23.9728 19.8395 22.9999 20.599C22.0271 21.3586 21.2401 22.3297 20.6986 23.4388C20.1572 24.5479 19.8755 25.7658 19.875 27ZM21.125 27C21.1253 25.9454 21.3682 24.905 21.8349 23.9593C22.3017 23.0136 22.9797 22.188 23.8166 21.5463C24.6534 20.9045 25.6267 20.464 26.6611 20.2586C27.6955 20.0532 28.7633 20.0885 29.7818 20.3619C30.8004 20.6352 31.7424 21.1392 32.535 21.8348C33.3276 22.5305 33.9496 23.3992 34.3528 24.3736C34.7559 25.3481 34.9295 26.4023 34.8601 27.4546C34.7906 28.5069 34.4801 29.5291 33.9523 30.4422C33.9081 30.5188 33.8806 30.604 33.8717 30.6921C33.8628 30.7802 33.8727 30.8692 33.9008 30.9531L34.875 33.875L31.9531 32.9008C31.8895 32.8791 31.8227 32.868 31.7555 32.868C31.6457 32.8682 31.5379 32.8973 31.443 32.9523C30.3978 33.557 29.2118 33.8758 28.0043 33.8766C26.7969 33.8773 25.6105 33.5601 24.5646 32.9567C23.5186 32.3533 22.6501 31.4851 22.0463 30.4394C21.4425 29.3937 21.1247 28.2075 21.125 27Z" fill="white" fill-opacity="0.6"/>
</svg>
