<svg width="19" height="17" viewBox="0 0 19 17" fill="none" xmlns="http://www.w3.org/2000/svg">
<path d="M0 15.2737V1.0987C0 0.698887 0.163558 0.394306 0.490674 0.184951C0.817791 -0.024403 1.16308 -0.0560247 1.52654 0.0900872L18.3185 7.17761C18.7728 7.37751 19 7.71371 19 8.18621C19 8.65872 18.7728 8.99492 18.3185 9.19482L1.52654 16.2823C1.16308 16.4277 0.817791 16.3957 0.490674 16.1864C0.163558 15.977 0 15.6728 0 15.2737ZM2.18077 13.6382L15.1019 8.18621L2.18077 2.73428V6.55063L8.7231 8.18621L2.18077 9.82179V13.6382ZM2.18077 8.18621V2.73428V13.6382V8.18621Z" fill="white"/>
</svg>
